<?xml version="1.0" standalone="no"?><!DOCTYPE svg PUBLIC "-//W3C//DTD SVG 1.1//EN" "http://www.w3.org/Graphics/SVG/1.1/DTD/svg11.dtd"><svg t="1526435222756" class="icon" style="" viewBox="0 0 1024 1024" version="1.1" xmlns="http://www.w3.org/2000/svg" p-id="19745" xmlns:xlink="http://www.w3.org/1999/xlink" width="200" height="200"><defs><style type="text/css"></style></defs><path d="M512 128.24c-211.95 0-383.76 171.82-383.76 383.76S300.05 895.76 512 895.76 895.76 723.95 895.76 512 723.95 128.24 512 128.24z m164.47 420.31H548.55v127.92a36.55 36.55 0 1 1-73.1 0V548.55H347.53a36.55 36.55 0 0 1 0-73.1h127.92V347.53a36.55 36.55 0 1 1 73.1 0v127.92h127.92a36.55 36.55 0 0 1 0 73.1z" p-id="19746" fill="#409eff"></path></svg>