<?xml version="1.0" standalone="no"?><!DOCTYPE svg PUBLIC "-//W3C//DTD SVG 1.1//EN" "http://www.w3.org/Graphics/SVG/1.1/DTD/svg11.dtd"><svg t="1527129752181" class="icon" style="" viewBox="0 0 1024 1024" version="1.1" xmlns="http://www.w3.org/2000/svg" p-id="2400" xmlns:xlink="http://www.w3.org/1999/xlink" width="20" height="20"><defs><style type="text/css"></style></defs><path d="M874.274 137.684H148.723C66.835 137.684 0 201.308 0 279.382v74.863h1022.996v-74.863c0-78.074-66.834-141.698-148.722-141.698zM0 499.154v298.851c0 78.075 66.634 141.699 148.723 141.699h725.55c81.889 0 148.723-63.624 148.723-141.699v-298.85H0z m933.883 206.527L811.854 838.749c-2.208 2.81-5.62 4.616-9.433 4.616-3.211 0-6.623-1.405-8.831-3.613l-0.2-0.2c-2.81-2.81-3.814-6.423-3.413-10.236l-0.2-72.054c-80.885 0-154.343 58.205-168.794 134.473-10.236-23.081-15.253-47.969-15.253-73.057 0-101.356 82.49-183.445 184.247-183.445V563.18c-0.602-3.613 0.803-7.426 3.412-10.236 4.817-4.817 12.645-4.817 17.662 0l122.631 133.87c2.409 2.409 3.613 5.821 3.613 9.233 0.2 3.813-1.003 7.225-3.412 9.634z m0 0" p-id="2401"></path></svg>