<?xml version="1.0" standalone="no"?><!DOCTYPE svg PUBLIC "-//W3C//DTD SVG 1.1//EN" "http://www.w3.org/Graphics/SVG/1.1/DTD/svg11.dtd"><svg class="icon" width="200px" height="200.00px" viewBox="0 0 1024 1024" version="1.1" xmlns="http://www.w3.org/2000/svg"><path fill="#333333" d="M299.945 959.025a235.704 235.704 0 0 1-167.31-69.288c-91.797-92.311-91.471-241.533 0.728-333.444l185.402-185.177a234.636 234.636 0 0 1 167.533-68.504c85.794 0.107 164.768 46.778 206.238 121.883 9.58 17.49 3.282 39.432-14.116 49.18-17.519 9.624-39.52 3.323-49.291-14.115-28.863-52.072-83.688-84.405-143.224-84.468a162.33 162.33 0 0 0-115.835 47.389l-185.4 185.008a163.392 163.392 0 0 0-0.56 231.108c63.857 63.776 167.224 64.027 231.39 0.56l48.002-47.778c14.138-14.153 37.071-14.164 51.223-0.028 14.153 14.138 14.166 37.071 0.028 51.224l-48.17 47.89a235.423 235.423 0 0 1-166.638 68.56zM537.887 721.028a235.252 235.252 0 0 1-167.143-69.233 234.022 234.022 0 0 1-41.618-56.068 35.901 35.901 0 0 1 15.012-48.843 36.015 36.015 0 0 1 48.899 15.01c7.618 14.284 17.364 27.335 28.79 38.874l0.17 0.224c63.862 63.813 167.273 64.063 231.443 0.56l185.962-184.84c30.976-30.751 48.17-71.808 48.17-115.386a162.324 162.324 0 0 0-47.61-115.722l-0.224-0.17c-63.793-63.831-167.21-64.007-231.22-0.39l-0.335 0.39-35.681 34.168c-14.338 13.952-37.271 13.638-51.223-0.7-13.952-14.338-13.639-37.271 0.7-51.223l35.512-34.336c92.567-91.505 241.649-91.106 333.723 0.896l0.169 0.169a234.132 234.132 0 0 1 68.616 166.75 234.245 234.245 0 0 1-69.512 166.525l-185.963 184.84a235.424 235.424 0 0 1-166.637 68.505z" /></svg>