<?xml version="1.0" standalone="no"?><!DOCTYPE svg PUBLIC "-//W3C//DTD SVG 1.1//EN" "http://www.w3.org/Graphics/SVG/1.1/DTD/svg11.dtd"><svg class="icon" width="200px" height="200.00px" viewBox="0 0 1024 1024" version="1.1" xmlns="http://www.w3.org/2000/svg"><path fill="#333333" d="M852.62 261.614H737.944v-43.977c0-55.398-45.057-100.435-100.44-100.435H384.533c-55.381 0-100.433 45.038-100.433 100.435v43.977H169.424c-55.385 0-100.438 45.059-100.438 100.434v440.558c0 55.396 45.053 100.433 100.438 100.433H852.62c55.38 0 100.434-45.037 100.434-100.433v-212.9c-60.439 0-120.65 0.15-181.192 0.15v43.47c0 24.256-19.85 44.106-44.11 44.106-24.26 0-44.11-19.85-44.11-44.107v-43.469H338.404v43.47c0 24.256-19.85 44.106-44.11 44.106-24.261 0-44.11-19.85-44.11-44.107v-43.469c-60.587 0-120.744-0.086-181.191-0.086v-59.288c60.442 0 120.785-0.36 181.207-0.36 0.355-23.961 20.05-43.47 44.094-43.47 24.045 0 43.74 19.51 44.095 43.47h345.268c0.354-23.961 20.056-43.47 44.094-43.47 24.044 0 43.746 19.51 44.095 43.47 60.45 0 120.79 0.254 181.209 0.254V362.048c0.005-55.374-45.055-100.434-100.436-100.434z m-508.782-43.976c0-22.435 18.26-40.695 40.694-40.695h252.973c22.441 0 40.695 18.26 40.695 40.695v43.977H343.838v-43.977z" /></svg>