<?xml version="1.0" standalone="no"?><!DOCTYPE svg PUBLIC "-//W3C//DTD SVG 1.1//EN" "http://www.w3.org/Graphics/SVG/1.1/DTD/svg11.dtd"><svg t="1526979542764" class="icon" style="" viewBox="0 0 1196 1024" version="1.1" xmlns="http://www.w3.org/2000/svg" p-id="2743" xmlns:xlink="http://www.w3.org/1999/xlink" width="23.359375" height="20"><defs><style type="text/css"></style></defs><path d="M1070.681 139.446H169.968c-34.113 0-61.643 27.53-61.643 59.848v519.481c0 31.72 27.53 59.848 61.643 61.643h898.918c34.113 0 61.644-27.53 61.644-61.643h2.393V201.089c-0.598-33.514-28.128-61.643-62.242-61.643zM456.042 583.518h-59.848l-85.583-248.967h57.454l53.864 175.953c2.394 8.977 4.19 16.757 4.788 24.537h1.197c0.598-7.78 2.393-16.158 5.386-25.136l53.863-175.354h55.659l-86.78 248.967z m191.514-207.672H626.01v166.377h21.545v41.295h-95.757v-41.295h20.947V375.846h-20.947V334.55h95.757v41.295z m257.346 207.672h-54.461l-105.333-160.99c-5.386-8.38-9.576-14.963-11.97-20.35h-0.598c1.197 8.38 1.197 21.546 1.197 39.5v141.84h-50.272V334.551h58.052L843.26 491.352c6.583 10.175 10.773 16.758 12.568 19.75h0.598c-1.196-5.985-1.795-17.356-1.795-34.712V334.55h50.272v248.968z" p-id="2744" fill="#909090"></path></svg>