<?xml version="1.0" standalone="no"?><!DOCTYPE svg PUBLIC "-//W3C//DTD SVG 1.1//EN" "http://www.w3.org/Graphics/SVG/1.1/DTD/svg11.dtd"><svg t="1526975416327" class="icon" style="" viewBox="0 0 1024 1024" version="1.1" xmlns="http://www.w3.org/2000/svg" p-id="2792" xmlns:xlink="http://www.w3.org/1999/xlink" width="20" height="20"><defs><style type="text/css"></style></defs><path d="M934.4 364.8h-96l-32-108.8c-12.8-64-57.6-96-115.2-96H332.8c-64 0-102.4 44.8-115.2 96l-32 115.2c-6.4 0-6.4-6.4-12.8-6.4H89.6c-12.8 0-25.6 12.8-25.6 25.6v19.2c0 12.8 12.8 25.6 25.6 25.6l32 6.4c-12.8 19.2-19.2 38.4-19.2 64L89.6 640v179.2c0 25.6 19.2 38.4 44.8 38.4h64c25.6 0 44.8-19.2 44.8-38.4V768h550.4v51.2c0 25.6 19.2 38.4 44.8 38.4h64c25.6 0 44.8-19.2 44.8-38.4V640l-12.8-134.4c0-25.6-6.4-51.2-12.8-70.4l32-6.4c12.8 0 25.6-12.8 25.6-25.6v-12.8c-19.2-12.8-32-25.6-44.8-25.6z m-684.8-19.2l25.6-76.8c0-12.8 6.4-19.2 19.2-32h435.2c6.4 12.8 12.8 12.8 19.2 32l25.6 76.8 12.8 38.4c0 32-38.4 51.2-70.4 51.2H307.2c-32 0-64-25.6-70.4-51.2l12.8-38.4z m19.2 345.6c-32 0-64-25.6-64-64 0-32 25.6-64 64-64 32 0 64 25.6 64 64s-32 64-64 64z m486.4 0c-32 0-64-25.6-64-64 0-32 25.6-64 64-64 32 0 64 25.6 64 64s-25.6 64-64 64z m0 0" p-id="2793"></path></svg>