<?xml version="1.0" standalone="no"?><!DOCTYPE svg PUBLIC "-//W3C//DTD SVG 1.1//EN" "http://www.w3.org/Graphics/SVG/1.1/DTD/svg11.dtd"><svg t="1526614651697" class="icon" style="" viewBox="0 0 1147 1024" version="1.1" xmlns="http://www.w3.org/2000/svg" p-id="3209" xmlns:xlink="http://www.w3.org/1999/xlink" width="224.0234375" height="200"><defs><style type="text/css"></style></defs><path d="M1038.02 178.928H106.898L10.24 431.85c0 75.716 62.83 138.538 140.155 138.538 77.319 0 141.758-61.213 141.758-138.538 0 75.716 62.83 138.538 140.155 138.538s141.758-61.213 141.758-138.538c0 75.716 62.83 138.538 140.155 138.538 77.327 0 140.149-61.213 140.149-138.538 0 75.716 62.83 138.538 141.766 138.538 77.325 0 141.764-61.213 141.764-138.538l-99.88-252.92z m-77.325 434.956v322.19h-773.25v-322.19h-80.547v338.302c0 28.994 32.22 64.433 61.214 64.433H978.42c28.992 0 61.212-35.439 61.212-64.433V613.884h-78.936z m77.325-436.565l3.22 2.816-3.22-2.816z m-866.69-62.824h805.471c27.391 0 48.333-20.942 48.333-48.33 0-27.385-20.942-48.328-48.333-48.328h-805.47c-27.383 0-48.325 20.943-48.325 48.327 0 27.39 20.942 48.331 48.325 48.331z" fill="#555555" p-id="3210"></path></svg>