<?xml version="1.0" standalone="no"?><!DOCTYPE svg PUBLIC "-//W3C//DTD SVG 1.1//EN" "http://www.w3.org/Graphics/SVG/1.1/DTD/svg11.dtd"><svg t="1526268782311" class="icon" style="" viewBox="0 0 1024 1024" version="1.1" xmlns="http://www.w3.org/2000/svg" p-id="1710" xmlns:xlink="http://www.w3.org/1999/xlink" width="20" height="20"><defs><style type="text/css"></style></defs><path d="M512 722.95452696L512 722.95452696C628.50696328 722.95452696 722.95452696 628.50696328 722.95452696 512 722.95452696 395.49303672 628.50696328 301.04547304 512 301.04547304 395.49302359 301.04547304 301.04545991 395.49303672 301.04545991 512 301.04545991 628.50696328 395.49302359 722.95452696 512 722.95452696L512 722.95452696ZM512 817.5203706L512 817.5203706C343.26576089 817.5203706 206.4796294 680.73423076 206.4796294 512 206.4796294 343.26576924 343.26576089 206.4796294 512 206.4796294 680.73423076 206.4796294 817.5203706 343.26576924 817.5203706 512 817.5203706 680.73423076 680.73423076 817.5203706 512 817.5203706L512 817.5203706Z" p-id="1711" fill="#000000"></path></svg>