<?xml version="1.0" standalone="no"?><!DOCTYPE svg PUBLIC "-//W3C//DTD SVG 1.1//EN" "http://www.w3.org/Graphics/SVG/1.1/DTD/svg11.dtd"><svg t="1526614677207" class="icon" style="" viewBox="0 0 1024 1024" version="1.1" xmlns="http://www.w3.org/2000/svg" p-id="3979" xmlns:xlink="http://www.w3.org/1999/xlink" width="200" height="200"><defs><style type="text/css"></style></defs><path d="M673.97632 0c-75.4176 34.80576-265.86624 10.35776-311.78752 56.27904C296.90368 121.56416 303.1552 237.03552 293.87264 325.2224c-104.49408-15.45216 12.36992 161.31072 43.38688 190.464 37.62176 37.71392 71.05024 60.68736 65.8176 119.58272-10.87488 122.368-227.75296 118.44608-299.47904 192.86528-132.54144 137.6768 276.992 191.95392 383.16032 195.7632 75.50464 2.70336 533.42208-49.67936 449.54112-174.82752-78.68416-117.39136-321.91488-109.0816-324.23936-206.9504-1.44384-59.50464 39.74144-92.95872 75.89376-134.0928 32.47104-33.82272 142.62784-201.66656 44.63616-188.68736C757.00736 181.10464 685.36832 127.37536 673.97632 0z" p-id="3980" fill="#555555"></path></svg>