<?xml version="1.0" standalone="no"?><!DOCTYPE svg PUBLIC "-//W3C//DTD SVG 1.1//EN" "http://www.w3.org/Graphics/SVG/1.1/DTD/svg11.dtd"><svg t="1526614612138" class="icon" style="" viewBox="0 0 1024 1024" version="1.1" xmlns="http://www.w3.org/2000/svg" p-id="2451" xmlns:xlink="http://www.w3.org/1999/xlink" width="200" height="200"><defs><style type="text/css"></style></defs><path d="M263.68 631.296l-139.776 71.168c-33.792 17.408-61.44 58.368-61.44 92.672V855.04c0 16.896 13.824 34.304 32.768 43.008 0 0 151.552 64 343.04 64 192 0 343.04-64 343.04-64 18.944-8.192 32.768-26.112 32.768-43.008v-59.904c0-33.792-27.648-75.264-61.44-92.672L599.552 624.64c-44.544 34.816-101.888 55.808-172.544 55.808-66.048 0-120.32-17.92-163.328-49.152z m163.84-62.976c142.336 0 197.12-144.896 197.12-284.672s-88.576-221.184-197.12-221.184-196.608 81.408-196.608 221.184c0 139.776 53.76 284.672 196.608 284.672z m534.016-224.768c0-14.848-6.144-29.184-16.896-39.936-10.752-10.752-25.088-16.384-39.936-16.384H793.6c-31.232 0-56.32 25.088-56.32 56.32s25.088 56.32 56.32 56.32h111.104c31.744-0.512 56.832-25.088 56.832-56.32z m0 224.768c0-31.232-25.088-56.32-56.32-56.32h-56.32c-14.848 0-29.184 5.632-39.936 16.384-10.752 10.752-16.384 25.088-16.384 39.936 0 31.232 25.088 56.32 56.32 56.32h56.32c14.848 0 29.184-5.632 39.936-16.384 10.752-10.752 16.384-25.088 16.384-39.936z m0 0" p-id="2452" fill="#555555"></path></svg>