<?xml version="1.0" standalone="no"?><!DOCTYPE svg PUBLIC "-//W3C//DTD SVG 1.1//EN" "http://www.w3.org/Graphics/SVG/1.1/DTD/svg11.dtd"><svg t="1526975356014" class="icon" style="" viewBox="0 0 1024 1024" version="1.1" xmlns="http://www.w3.org/2000/svg" p-id="2620" xmlns:xlink="http://www.w3.org/1999/xlink" width="20" height="20"><defs><style type="text/css"></style></defs><path d="M559.672 285.257H164.701a43.886 43.886 0 0 1-36.572-36.571 43.886 43.886 0 0 1 36.572-36.572h394.971a43.886 43.886 0 0 1 36.571 36.572 43.886 43.886 0 0 1-36.571 36.571z m-204.8 190.172H164.701a36.571 36.571 0 0 0 0 73.142h190.171A43.886 43.886 0 0 0 391.443 512a36.571 36.571 0 0 0-36.571-36.571z m0 270.628H164.701a36.571 36.571 0 0 0 0 73.143h190.171a43.886 43.886 0 0 0 36.571-36.571 36.571 36.571 0 0 0-36.571-36.572z" p-id="2621"></path><path d="M523.1 1024H106.187a102.4 102.4 0 0 1-102.4-102.4V117.029A109.714 109.714 0 0 1 106.186 0H793.73a102.4 102.4 0 0 1 102.4 102.4v292.571a36.571 36.571 0 1 1-73.143 0V117.03a43.886 43.886 0 0 0-36.571-36.572H106.186a43.886 43.886 0 0 0-36.571 36.572V921.6a43.886 43.886 0 0 0 36.571 36.571h416.915a43.886 43.886 0 0 1 36.571 36.572c0 21.943-7.314 29.257-36.571 29.257z" p-id="2622"></path><path d="M1005.843 914.286L874.186 782.629a219.429 219.429 0 1 0-51.2 51.2l131.657 131.657a36.571 36.571 0 1 0 51.2-51.2z" p-id="2623"></path><path d="M590.612 762.119a146.286 146.286 0 1 0 206.88-206.88 146.286 146.286 0 1 0-206.88 206.88z" p-id="2624"></path></svg>