<?xml version="1.0" standalone="no"?><!DOCTYPE svg PUBLIC "-//W3C//DTD SVG 1.1//EN" "http://www.w3.org/Graphics/SVG/1.1/DTD/svg11.dtd"><svg t="1526975273640" class="icon" style="" viewBox="0 0 1024 1024" version="1.1" xmlns="http://www.w3.org/2000/svg" p-id="1760" xmlns:xlink="http://www.w3.org/1999/xlink" width="20" height="20"><defs><style type="text/css"></style></defs><path d="M149.212 813.222c0 33.28 26.958 60.243 60.244 60.243H811.9c33.28 0 60.242-26.962 60.242-60.243V647.547c0-33.282-26.962-60.244-60.243-60.244H631.166V429.165c0-20.784-16.867-37.657-37.65-37.657-20.785 0-37.652 16.873-37.652 37.656v158.139H209.457c-33.28 0-60.243 26.962-60.243 60.25v165.669z m75.304-82.838c0-20.784 16.868-37.653 37.656-37.653 20.783 0 37.65 16.87 37.65 37.653 0 20.783-16.867 37.654-37.65 37.654-20.788 0-37.656-16.87-37.656-37.654z m135.552 0c0-20.784 16.866-37.653 37.65-37.653s37.656 16.87 37.656 37.653c0 20.783-16.872 37.654-37.655 37.654-20.785 0-37.651-16.87-37.651-37.654zM593.513 271.02c-87.356 0-158.138 70.79-158.138 158.144 0 20.785 16.867 37.652 37.65 37.652 20.786 0 37.652-16.868 37.652-37.652 0-45.787 37.053-82.835 82.84-82.835 45.784 0 82.831 37.048 82.831 82.835 0 20.785 16.873 37.652 37.656 37.652 20.784 0 37.652-16.868 37.652-37.652 0-87.355-70.787-158.144-158.143-158.144z m0-120.486c-153.923 0-278.63 124.706-278.63 278.63 0 20.785 16.868 37.652 37.656 37.652 20.784 0 37.652-16.868 37.652-37.652 0-112.356 90.967-203.322 203.32-203.322s203.326 90.966 203.326 203.322c0 20.785 16.872 37.652 37.655 37.652 20.785 0 37.651-16.868 37.651-37.652 0-153.923-124.693-278.63-278.63-278.63z" p-id="1761" fill="#333333"></path></svg>