<?xml version="1.0" standalone="no"?><!DOCTYPE svg PUBLIC "-//W3C//DTD SVG 1.1//EN" "http://www.w3.org/Graphics/SVG/1.1/DTD/svg11.dtd"><svg t="1526975502014" class="icon" style="" viewBox="0 0 1024 1024" version="1.1" xmlns="http://www.w3.org/2000/svg" p-id="3468" xmlns:xlink="http://www.w3.org/1999/xlink" width="20" height="20"><defs><style type="text/css"></style></defs><path d="M389.538 934.322H121.933c-24.03 0-43.691-19.661-43.691-43.691V623.026c0-24.03 19.661-43.691 43.691-43.691h267.605c24.03 0 43.691 19.661 43.691 43.691v267.605c0 24.03-19.661 43.691-43.691 43.691z" p-id="3469"></path><path d="M389.538 950.706H121.933c-32.768 0-60.075-27.307-60.075-60.075V623.026c0-32.768 27.307-60.075 60.075-60.075h267.605c32.768 0 60.075 27.307 60.075 60.075v267.605c0 32.768-26.214 60.075-60.075 60.075zM121.932 595.72c-15.292 0-27.307 12.015-27.307 27.307v267.605c0 15.292 12.015 27.307 27.307 27.307h267.605c15.292 0 27.307-12.015 27.307-27.307V623.027c0-15.292-12.015-27.307-27.307-27.307H121.932zM389.538 466.832H121.933c-24.03 0-43.691-19.661-43.691-43.691V155.536c0-24.03 19.661-43.691 43.691-43.691h267.605c24.03 0 43.691 19.661 43.691 43.691v267.605c0 24.03-19.661 43.691-43.691 43.691z" p-id="3470"></path><path d="M389.538 483.216H121.933c-32.768 0-60.075-27.307-60.075-60.075V155.536c0-32.768 27.307-60.075 60.075-60.075h267.605c32.768 0 60.075 27.307 60.075 60.075v267.605c0 32.768-26.214 60.075-60.075 60.075zM121.932 128.229c-15.292 0-27.307 12.015-27.307 27.307v267.605c0 15.292 12.015 27.307 27.307 27.307h267.605c15.292 0 27.307-12.015 27.307-27.307V155.536c0-15.292-12.015-27.307-27.307-27.307H121.932zM857.028 934.322H589.423c-24.03 0-43.691-19.661-43.691-43.691V623.026c0-24.03 19.661-43.691 43.691-43.691h267.605c24.03 0 43.691 19.661 43.691 43.691v267.605c0 24.03-19.661 43.691-43.691 43.691z" p-id="3471"></path><path d="M857.028 950.706H589.423c-32.768 0-60.075-27.307-60.075-60.075V623.026c0-32.768 27.307-60.075 60.075-60.075h267.605c32.768 0 60.075 27.307 60.075 60.075v267.605c0 32.768-27.307 60.075-60.075 60.075zM589.423 595.72c-15.292 0-27.307 12.015-27.307 27.307v267.605c0 15.292 12.015 27.307 27.307 27.307h267.605c15.292 0 27.307-12.015 27.307-27.307V623.027c0-15.292-12.015-27.307-27.307-27.307H589.423zM924.748 328.114L762 490.862c-20.753 20.753-55.706 20.753-77.551 0L521.701 328.114c-20.753-20.753-20.753-55.706 0-77.551L684.449 87.815c20.753-20.753 55.706-20.753 77.551 0l162.748 162.748c20.753 21.845 20.753 55.706 0 77.551z" p-id="3472"></path><path d="M722.679 522.538c-18.569 0-37.137-7.646-50.244-20.753L509.687 339.037c-27.307-27.307-27.307-73.182 0-100.489L672.435 76.893c13.107-13.107 31.676-20.753 50.244-20.753s37.137 7.646 50.244 20.753l162.748 162.748c27.307 27.307 27.307 73.182 0 100.489L772.923 501.785c-13.107 14.199-30.583 20.753-50.244 20.753z m0-433.63c-9.83 0-19.661 4.369-27.307 10.923L533.717 262.579c-15.292 15.292-15.292 39.322 0 54.613L696.465 479.94c14.199 14.199 39.322 14.199 54.613 0l162.748-162.748c15.292-15.292 15.292-39.322 0-54.613L749.986 99.831c-6.554-7.646-16.384-10.923-27.307-10.923z" p-id="3473"></path></svg>