<?xml version="1.0" standalone="no"?><!DOCTYPE svg PUBLIC "-//W3C//DTD SVG 1.1//EN" "http://www.w3.org/Graphics/SVG/1.1/DTD/svg11.dtd"><svg t="1526975443673" class="icon" style="" viewBox="0 0 1024 1024" version="1.1" xmlns="http://www.w3.org/2000/svg" p-id="3130" xmlns:xlink="http://www.w3.org/1999/xlink" width="20" height="20"><defs><style type="text/css"></style></defs><path d="M510.85 64.44C264.37 64.44 62.7 265.89 62.7 512.11s201.67 447.66 448.15 447.66S959 758.32 959 512.11 757.33 64.44 510.85 64.44z m0 766.63c-33.61 0-61.62-28-61.62-61.55s28-61.56 61.62-61.56 61.62 28 61.62 61.56-28 61.55-61.62 61.55z m56-257.41c0 39.17-16.8 61.55-56 61.55s-56-22.38-56-61.55v-319c0-39.17 16.81-61.55 56-61.55s56 28 56 61.55z m0 0" p-id="3131"></path></svg>