<?xml version="1.0" standalone="no"?><!DOCTYPE svg PUBLIC "-//W3C//DTD SVG 1.1//EN" "http://www.w3.org/Graphics/SVG/1.1/DTD/svg11.dtd"><svg t="1527129770715" class="icon" style="" viewBox="0 0 1204 1024" version="1.1" xmlns="http://www.w3.org/2000/svg" p-id="2569" xmlns:xlink="http://www.w3.org/1999/xlink" width="23.515625" height="20"><defs><style type="text/css"></style></defs><path d="M1084.235 120.47H548.141L475.86 42.166C457.789 12.047 421.647 0 385.506 0H120.47C54.21 0 0 54.212 0 120.47v783.06C0 969.787 54.212 1024 120.47 1024h963.765c66.26 0 120.47-54.212 120.47-120.47V240.94c0-66.259-54.21-120.47-120.47-120.47zM897.505 578.26c-12.046 18.07-30.117 24.094-48.187 24.094H722.824v180.706c0 36.141-24.095 60.235-60.236 60.235h-120.47c-36.142 0-60.236-24.094-60.236-60.235V602.353H355.388c-36.14 0-60.235-24.094-60.235-60.235 0-18.07 12.047-36.142 24.094-48.189l246.965-180.705c24.094-18.071 48.188-18.071 72.282 0L885.46 493.929c24.094 18.071 30.117 54.212 12.047 84.33z" p-id="2570"></path></svg>