<?xml version="1.0" standalone="no"?><!DOCTYPE svg PUBLIC "-//W3C//DTD SVG 1.1//EN" "http://www.w3.org/Graphics/SVG/1.1/DTD/svg11.dtd"><svg t="1526886974762" class="icon" style="" viewBox="0 0 1024 1024" version="1.1" xmlns="http://www.w3.org/2000/svg" p-id="1131" xmlns:xlink="http://www.w3.org/1999/xlink" width="200" height="200"><defs><style type="text/css"></style></defs><path d="M548.783 125.305l-45.02 45.02-28.632-28.65 45.02-45.002z m-68.16-68.127L509.1 85.65699999l-45.02 45.00300001-28.479-28.47899999z" p-id="1132"></path><path d="M0.819 299.672L0 1023.982l1024-1024-723.47500001-0.017L0.82 299.672z m292.595-61.374l-16.984-17.002 10.40199999-10.385 17.00200001 16.985 33.37300001-33.373 9.49799999 9.499-31.395 31.377c23.568 1.535 45.208-1.927 64.904-10.40200001 0.716 6.446 1.603 12.312 2.592 17.59900001a153.05 153.05 0 0 1-61.39 2.916l31.701 31.68400001-10.42 10.40299999-31.667-31.685c3.07 18.98 3.462 38.472 1.21 58.492-5.405-0.307-10.981-0.358-16.694-0.17a195.257 195.257 0 0 0 4.911-63.984l-22.356 22.357-9.499-9.499 24.812-24.812z m85.129 23.26l10.71 10.727-113.898 113.897-10.726-10.71L378.543 261.56z m-182.194 73.789l29.535-29.536L208.9 288.81l10.419-10.40200001 16.985 17.00200001 26.483-26.483 9.499 9.498-26.484 26.483 11.324 11.324-1.996-9.345c13.78-4.383 24.847-7.3 33.22-8.715l2.609 13.609c-8.8 1.023-19.253 3.308-31.395 6.872L285.74 344.83l-10.402 10.419-31.07-31.07a188.334 188.334 0 0 1 1.824 57.86 116.08 116.08 0 0 0-16.541 0.631 175.987 175.987 0 0 0 3.53-65.074l-27.268 27.268-9.464-9.516z m84.207 168.70599999l-81.428 81.44500001c-15.62 15.62-31.48 15.365-47.61199999-0.768l-79.60300001-79.603 13.165-13.165 20.94 20.958 91.558-91.54-39.358-39.359L47.851 492.405l-11.323-11.32300001L159.77 357.84l71.333 71.34999999-12.875 12.85800001-9.328-9.328-91.541 91.54 44.542 44.543c9.397 9.396 18.52 9.635 27.405 0.75l75.476-75.476c8.76599999-8.783 10.931-17.241 6.43-25.41-4.4-8.048-11.324-17.752-20.822-29.075 5.695-2.25 11.63-5.116 17.752-8.577 9.191 12.03899999 16.11499999 22.05 20.821 30.01299999 8.476 14.597 5.68 28.939-8.407 43.025z m29.84300001-46.99899999a378.236 378.236 0 0 0 15.31399999-63.062l16.985 1.365a586.027 586.027 0 0 1-16.218 64.92c-4.894-1.244-10.249-2.31900001-16.08-3.223z m79.00699999-51.449A933.508 933.508 0 0 1 369.18 425.2c-4.28-3.478-9.123-7.094-14.53-10.88000001 8.459-6.82 15.042-12.585 19.731-17.29099999 5.713-5.73000001 5.679-11.494-0.153-17.326l-21.59-21.59-70.104 70.106-10.72699999-10.71 147.88399999-147.866 10.726 10.709-65.688 65.671 23.107 23.107c12.687 12.705 13.199 24.846 1.569 36.476z m67.03499999-76.84a1278.67 1278.67 0 0 0-63.522 17.598l-3.37699999-15.296c20.413-7.163 41.217-13.984 62.465-20.515l4.43399999 18.213zM603.268 155.30000001c12.159 12.159 12.448 23.994 0.92 35.53899999a1000.893 1000.893 0 0 1-24.18 23.243c-3.889-2.865-8.88500001-6.327-15.007-10.385 9.498-8.271 16.985-15.16 22.49299999-20.686 6.326-6.326 6.48-12.482 0.44300001-18.52l-28.154-28.16999999-45.01999999 45.01999999 48.68599999 48.669-12.261 12.26-48.67-48.686-44.542 44.56c19.492 22.953 30.91699999 46.725 34.31 71.333-6.036-0.717-12.55-1.211-19.593-1.518a116.353 116.353 0 0 0-17.77-44.713c-8.765-13.267-23.26-29.996-43.46799999-50.204l-54.65500001-54.65500001 124.76-124.75999999L603.268 155.30000001z" p-id="1133"></path><path d="M423.358 114.442l28.479 28.479-43.008 43.007-28.47800001-28.478z m-3.478 82.52a351.77 351.77 0 0 1 27.932 29.33l43.707-43.706-28.649-28.632-42.99 43.008z" p-id="1134"></path></svg>