<?xml version="1.0" standalone="no"?><!DOCTYPE svg PUBLIC "-//W3C//DTD SVG 1.1//EN" "http://www.w3.org/Graphics/SVG/1.1/DTD/svg11.dtd"><svg class="icon" width="200px" height="200.00px" viewBox="0 0 1024 1024" version="1.1" xmlns="http://www.w3.org/2000/svg"><path fill="#333333" d="M512.267 65.038C263.327 65.038 65.305 263.062 65.305 512c0 248.942 198.022 446.962 446.962 446.962 248.942 0 446.963-198.02 446.963-446.962 0.001-248.938-198.02-446.962-446.963-446.962z m45.262 444.553a25.454 25.454 0 0 1-11.466 21.269l-183.53 120.742c-11.238 7.393-26.29 4.769-34.36-5.992l-2.996-3.994c-8.932-11.91-5.785-28.908 6.819-36.827l162.703-102.273a25.455 25.455 0 0 0 11.911-21.554V209.31c0-14.062 11.398-25.46 25.46-25.46 14.061 0 25.46 11.398 25.46 25.46v300.28z" /></svg>