<?xml version="1.0" standalone="no"?><!DOCTYPE svg PUBLIC "-//W3C//DTD SVG 1.1//EN" "http://www.w3.org/Graphics/SVG/1.1/DTD/svg11.dtd"><svg t="1526975454137" class="icon" style="" viewBox="0 0 1024 1024" version="1.1" xmlns="http://www.w3.org/2000/svg" p-id="3299" xmlns:xlink="http://www.w3.org/1999/xlink" width="20" height="20"><defs><style type="text/css"></style></defs><path d="M284.57 139.636h644.673c46.22 0 84.256 42.543 84.256 94.45v555.995c0 51.656-38.037 94.283-84.256 94.283H94.58c-46.22 0-84.08-42.627-84.08-94.283V344.334l274.07-204.698zM537.32 289.84c-23.989 0-43.882 21.81-43.882 48.89v70.294h96.116V289.829l-52.233 0.01z m86.175 0v466.394h141.34V289.84h-141.34z m175.365 0v119.193h96.954V338.74c0-27.08-19.726-48.891-43.706-48.891H798.86v-0.01z m96.954 157.128H798.86v121.865h96.954V446.967z m0 159.818H798.86v149.448h53.248c23.99 0 43.706-22.155 43.706-49.068v-100.38z m-306.25 149.448V606.785h-96.126v100.39c0 26.912 19.893 49.068 43.883 49.068h52.242v-0.01z m-96.2-187.392h96.116V446.967h-96.117V568.84z m0 0" p-id="3300"></path></svg>