<?xml version="1.0" standalone="no"?><!DOCTYPE svg PUBLIC "-//W3C//DTD SVG 1.1//EN" "http://www.w3.org/Graphics/SVG/1.1/DTD/svg11.dtd"><svg class="icon" width="200px" height="200.00px" viewBox="0 0 1024 1024" version="1.1" xmlns="http://www.w3.org/2000/svg"><path fill="#333333" d="M511.74 127.69c-212.058 0-383.964 171.906-383.964 383.963S299.682 895.616 511.74 895.616 895.702 723.71 895.702 511.653 723.796 127.69 511.739 127.69zM757.672 429.01L478.081 680.414a27.344 27.344 0 0 1-18.333 7.032 27.362 27.362 0 0 1-19.398-8.034L260.75 499.81c-10.711-10.71-10.711-28.075 0-38.785 10.71-10.71 28.076-10.71 38.785 0l161.212 161.21 260.252-234.013c11.263-10.128 28.603-9.207 38.732 2.056 10.127 11.262 9.207 28.603-2.057 38.73z" /></svg>