<?xml version="1.0" standalone="no"?><!DOCTYPE svg PUBLIC "-//W3C//DTD SVG 1.1//EN" "http://www.w3.org/Graphics/SVG/1.1/DTD/svg11.dtd"><svg t="1527129735603" class="icon" style="" viewBox="0 0 1024 1024" version="1.1" xmlns="http://www.w3.org/2000/svg" p-id="2231" xmlns:xlink="http://www.w3.org/1999/xlink" width="20" height="20"><defs><style type="text/css"></style></defs><path d="M916.48 423.834c26.071-17.367 27.996-32.482 27.996-55.276v-136.97a80.159 80.159 0 0 0-79.974-79.954H179.753a80.159 80.159 0 0 0-79.995 79.954v136.97c0 22.794 2.171 41.37 29.491 56.074 18.596 8.725 61.788 33.977 61.788 80.896 0 53.371-31.744 70.943-59.228 80.22l-2.396 1.209c-26.747 16.65-29.655 44.36-29.655 55.48v136.93a80.159 80.159 0 0 0 79.995 80.015h684.749a80.18 80.18 0 0 0 79.995-80.016V642.437c0-29.614-8.233-40.468-29.061-55.91-47.104-24.249-62.219-43.95-62.219-81.02-0.02-36.986 14.03-55.234 63.263-81.673m-225.628 65.208c0 14.397-11.612 26.112-26.05 26.112H561.233v51.999H664.8c14.439 0 26.05 11.735 26.05 26.091v25.99c0 14.335-11.611 26.05-26.05 26.05H561.234v77.66c0 14.397-11.715 26.112-26.071 26.112h-26.071a26.112 26.112 0 0 1-26.05-26.112v-77.66H379.452a26.05 26.05 0 0 1-26.07-26.05v-25.99c0-14.356 11.612-26.091 26.07-26.091h103.588v-52H379.474a26.05 26.05 0 0 1-26.071-26.111v-25.866c0-14.357 11.612-26.112 26.07-26.112h68.076l-86.097-92.529a26.644 26.644 0 0 1 0-35.88l16.424-17.982c9.053-9.872 26.706-10.056 35.881 0l108.217 116.285 108.4-116.367c9.032-9.81 26.809-9.81 35.881 0.143l16.61 18.125a26.706 26.706 0 0 1 0 35.922l-85.914 92.303h67.87c14.44 0 26.051 11.756 26.051 26.112l-0.02 25.846z" p-id="2232"></path></svg>