<?xml version="1.0" standalone="no"?><!DOCTYPE svg PUBLIC "-//W3C//DTD SVG 1.1//EN" "http://www.w3.org/Graphics/SVG/1.1/DTD/svg11.dtd"><svg t="1526615629246" class="icon" style="" viewBox="0 0 1024 1024" version="1.1" xmlns="http://www.w3.org/2000/svg" p-id="6914" xmlns:xlink="http://www.w3.org/1999/xlink" width="200" height="200"><defs><style type="text/css"></style></defs><path d="M636.167631 447.912095c37.40066 0 67.698714 33.049514 67.698714 73.841508l0 172.254194c0 40.760001-30.298054 73.809515-67.698714 73.809515l-248.207288 0c-37.368666 0-67.698714-33.049514-67.698714-73.809515l0-172.254194c0-40.760001 30.298054-73.841508 67.698714-73.841508L448.012557 447.912095l0 0 127.974884 0 0 0L636.167631 447.912095zM511.520094 512.219474c-35.321068 0-63.987443 27.386626-63.987443 61.203988 0 22.587567 17.532559 39.864176 36.600817 50.486092l0 79.536391 54.805244 0 0-79.536391c19.068257-10.621915 36.600817-27.898525 36.600817-50.486092C575.507537 539.606099 546.841162 512.219474 511.520094 512.219474zM512 320.097179c-60.148195 0-63.827474 50.582073-63.987443 63.987443l0 63.79548-64.403361 0 0-57.620691c0 0 0.031994-134.373628 128.134853-134.373628 128.134853 0 128.134853 134.373628 128.134853 134.373628l0 57.620691L575.987443 447.880101l0-63.79548C575.859468 370.903208 572.148195 320.097179 512 320.097179zM512 1023.959042c-282.728513 0-511.899536-229.171024-511.899536-511.899536s229.171024-511.899536 511.899536-511.899536c91.118117 0 176.60534 23.963297 250.702798 65.715103l47.606657-65.875072L895.540727 224.052028l-223.444147-32.793564 52.757646-73.009672C661.506659 83.91953 589.104868 64.179405 512 64.179405c-247.375451 0-447.912095 200.536644-447.912095 447.912095s200.536644 447.912095 447.912095 447.912095 447.912095-200.536644 447.912095-447.912095c0-60.404145-12.12562-117.928856-33.78537-170.526533l59.15639-24.347222C1010.046255 377.301952 1023.899536 443.049049 1023.899536 512.091499 1023.899536 794.788017 794.728513 1023.959042 512 1023.959042z" p-id="6915" fill="#555555"></path></svg>