<?xml version="1.0" standalone="no"?><!DOCTYPE svg PUBLIC "-//W3C//DTD SVG 1.1//EN" "http://www.w3.org/Graphics/SVG/1.1/DTD/svg11.dtd"><svg t="1526614709138" class="icon" style="" viewBox="0 0 1024 1024" version="1.1" xmlns="http://www.w3.org/2000/svg" p-id="4782" xmlns:xlink="http://www.w3.org/1999/xlink" width="200" height="200"><defs><style type="text/css"></style></defs><path d="M909.50506667 484.90986667c-10.91093333 100.72213333-56.33706667 194.64106667-128.6496 265.92853333a180.50026667 180.50026667 0 0 1-18.3808 20.97493333l-6.84906667 6.656a489.30133333 489.30133333 0 0 1-15.32586667 14.02346667l-8.448 7.248c-14.39893333 12.19733333-30.62933333 24.992-46.85973333 37.5584l-14.8992 11.2128a1290.22933333 1290.22933333 0 0 1-19.86026667 14.63786667c-6.54186667 4.8128-13.0336 9.4432-19.35893333 13.9552l-13.8464 9.8816c-37.66613333 26.5216-66.53226667 45.472-66.53226667 45.472s-18.94933333 13.744-36.61973333 15.7984h-5.77386667v-0.4384a69.6992 69.6992 0 0 1-36.7392-15.53066667 1424.12053333 1424.12053333 0 0 1-230.31573333-181.6192c-72.0448-71.34506667-117.232-165.1776-127.97226667-265.75786667V277.6288c1.0976-33.67893333 29.12213333-60.28586667 62.97066667-59.81333333v-1.16053334h5.22773333c102.93546667 0.58026667 202.65066667-35.7664 280.9024-102.3552a61.424 61.424 0 0 1 26.8288-19.376h44.58986667a61.61493333 61.61493333 0 0 1 26.8352 19.376c78.22826667 66.60586667 177.93813333 102.93546667 280.896 102.3552h5.15946667v1.16053334c33.872-0.512 61.92426667 26.10026667 63.02186666 59.81333333v207.28106667zM511.34826667 223.23626667c-96.94506667 0.10773333-175.45813333 78.47253333-175.36106667 175.0368 0.06826667 82.98453333 58.6752 154.47146667 140.2432 171.14026666v248.384c0.0224 19.3248 15.73013333 34.96426667 35.11786667 34.96426667 19.3824-0.01706667 35.08906667-15.65546667 35.08906666-34.96426667v-104.92053333h35.11786667c19.3824 0 35.08906667-15.65546667 35.08906667-34.976 0-19.30773333-15.70666667-34.96426667-35.08906667-34.96426667h-35.11786667v-73.5232c94.96-19.41013333 156.144-111.83253333 136.66453334-206.43413333-16.7296-81.27786667-88.4896-139.6512-171.7536-139.74293333z m0 279.7984c-58.17493333 0-105.3248-46.9792-105.3248-104.9152 0-57.9584 47.14986667-104.92053333 105.3248-104.92053334 58.15253333 0 105.296 46.96213333 105.296 104.92053334 0.00106667 57.936-47.14346667 104.9152-105.296 104.9152z" p-id="4783" fill="#555555"></path></svg>