<?xml version="1.0" standalone="no"?><!DOCTYPE svg PUBLIC "-//W3C//DTD SVG 1.1//EN" "http://www.w3.org/Graphics/SVG/1.1/DTD/svg11.dtd"><svg class="icon" width="200px" height="200.00px" viewBox="0 0 1024 1024" version="1.1" xmlns="http://www.w3.org/2000/svg"><path fill="#333333" d="M513.413 11.33c-277.058 0-501.657 224.6-501.657 501.658 0 277.054 224.599 501.658 501.657 501.658 277.054 0 501.658-224.604 501.658-501.658 0-277.058-224.604-501.657-501.658-501.657z m-17.879 116.091c2.033-0.65 4.593-0.501 5.73-2.959h22.768c9.185 4.28 19.092 6.805 27.172 13.66 18.114 15.36 26.178 39.91 19.635 62.075-7.08 23.982-26.045 40.192-50.335 43.008-31.344 3.635-59.412-16.625-65.75-47.473-6.017-29.306 11.79-59.084 40.78-68.31zM245.964 234.42c59.244 40.09 115.61 84.076 172.058 127.934a22084.086 22084.086 0 0 1 130.704 102.302c19.266 15.197 27.853 35.528 23.055 59.618-4.9 24.632-20.465 40.975-45.235 46.602-24.77 5.622-45.742-2.504-61.164-22.313C397.42 461.25 328.54 374.636 263.62 285.005c-12.13-16.758-24.157-33.633-34.617-51.528-1.52-2.606-3.174-5.156-3.768-9.861 8.443 2.304 14.597 6.646 20.73 10.803z m655.97 293.745c-1.229 1.239-0.625 2.816-0.783 4.25 0.066 1.162-0.24 2.4 0.783 3.343v9.103c-1.833 11.914-1.807 24.003-3.906 35.932-9.877 56.208-31.294 107.679-63.714 154.45-33.316 48.072-75.335 87.035-126.162 116.132-43.694 25.011-90.398 41.626-140.431 48.277-8.428 1.12-17.04 0.491-25.482 1.853h-6.073c-0.937-1.024-2.186-0.717-3.343-0.783-1.434 0.153-3.005-0.45-4.244 0.783h-30.352c-1.239-1.229-2.816-0.625-4.25-0.783-1.162 0.066-2.406-0.241-3.343 0.783h-9.103c-11.648-1.94-23.5-1.695-35.185-3.794-69.785-12.554-131.717-41.549-185.774-87.465-48.522-41.221-84.649-91.423-108.923-150.17a369.766 369.766 0 0 1-25-93.532c-0.943-7.178-0.37-14.52-1.767-21.688v-9.103c1.019-0.937 0.712-2.181 0.783-3.349-0.158-1.439 0.446-3.005-0.783-4.244v-30.352c1.444-1.674 0.502-3.686 0.783-5.524-0.097-1.234 0.318-2.575-0.783-3.59v-6.072c3.43-7.94 2.806-16.578 4.009-24.873a388.173 388.173 0 0 1 27.387-97.32c6.84-16.026 25.395-24.53 42.076-19.241 23.624 7.49 34.857 29.854 26.102 52.879-6.825 17.95-12.97 36.065-16.845 54.897-11.29 54.855-8.791 108.933 9.067 162.165 15.35 45.773 39.9 85.96 73.59 120.448 29.655 30.347 64.236 53.684 103.404 70.047 42.101 17.592 86.02 25.63 131.604 23.798 61.921-2.499 118.221-21.94 168.76-57.703 47.744-33.786 83.21-77.793 106.44-131.389 22.267-51.38 30.275-105.068 23.137-160.722-11.315-88.218-53.35-158.705-123.607-212.741-13.65-10.501-28.84-18.606-43.233-27.945-6.676-4.332-12.308-9.738-16.363-16.584-9.027-15.237-6.324-33.91 6.666-47.242 10.015-10.286 27.11-11.837 42.184-4.02 79.656 41.345 138.844 102.513 177.008 183.712 18.954 40.314 29.942 82.944 34.053 127.329 0.149 1.556-0.804 3.686 1.603 4.5l0.005 6.078c-1.495 1.853-0.486 4.04-0.789 6.052v4.183c0.23 1.648-0.573 3.471 0.789 4.94l0.005 24.295z" /></svg>