<?xml version="1.0" standalone="no"?><!DOCTYPE svg PUBLIC "-//W3C//DTD SVG 1.1//EN" "http://www.w3.org/Graphics/SVG/1.1/DTD/svg11.dtd"><svg class="icon" width="200px" height="200.00px" viewBox="0 0 1024 1024" version="1.1" xmlns="http://www.w3.org/2000/svg"><path fill="#333333" d="M585.856 832H438.208S408.576 917.312 320 917.312V960h384v-42.688c-88.64 0-118.144-85.312-118.144-85.312zM870.4 128H153.6c-49.472 0-89.6 40.96-89.6 91.392v457.216C64 727.04 104.128 768 153.6 768h716.8c49.472 0 89.6-40.96 89.6-91.456V219.392C960 168.96 919.872 128 870.4 128zM672 512H352c-35.2 0-64-14.4-64-32s28.8-32 64-32h320c35.2 0 64 14.4 64 32s-28.8 32-64 32z" /></svg>