<?xml version="1.0" standalone="no"?><!DOCTYPE svg PUBLIC "-//W3C//DTD SVG 1.1//EN" "http://www.w3.org/Graphics/SVG/1.1/DTD/svg11.dtd"><svg t="1526977928123" class="icon" style="" viewBox="0 0 1086 1024" version="1.1" xmlns="http://www.w3.org/2000/svg" p-id="2313" xmlns:xlink="http://www.w3.org/1999/xlink" width="21.2109375" height="20"><defs><style type="text/css"></style></defs><path d="M359.952 620.606l130.327-111.709-80.679-93.09 322.715-49.65-130.327 111.71 99.297 117.915-341.333 24.824z m707.49-285.479l-49.648-62.06c62.06-55.855 37.236-80.68 37.236-80.68L955.733 74.474s-24.824-31.03-86.885 18.618L819.2 31.03C788.17 0 738.521-6.207 707.49 18.617L31.03 577.164C0 608.194-6.206 657.842 18.618 688.873L273.067 992.97c31.03 31.03 80.678 37.236 111.709 12.412l670.254-558.546c37.237-31.03 37.237-80.678 12.412-111.709z" p-id="2314" fill="#909090"></path></svg>