<?xml version="1.0" standalone="no"?><!DOCTYPE svg PUBLIC "-//W3C//DTD SVG 1.1//EN" "http://www.w3.org/Graphics/SVG/1.1/DTD/svg11.dtd"><svg t="1526977909460" class="icon" style="" viewBox="0 0 1024 1024" version="1.1" xmlns="http://www.w3.org/2000/svg" p-id="2098" xmlns:xlink="http://www.w3.org/1999/xlink" width="20" height="20"><defs><style type="text/css"></style></defs><path d="M159.532 555.68l11.954 112.54 135.072 135.072 114.874 14.29 113.5-113.5-261.9-261.763-113.5 113.362m298.916-175.427l-4.553-33.339-33.339-4.552-108.855 108.854 37.892 37.891 108.855-108.854m138.558 138.504L488.085 627.68 526 665.596l108.92-108.92-4.544-33.373-33.372-4.545m-417.422 188.39l-9.803-9.803-25.762 31.04 13.195 13.195-20.86 20.862-11.311-11.31-10.054 12.063-2.89 3.394 14.2 14.2-20.86 20.862-12.316-12.316-12.693 15.458 0.754 0.754 15.457 15.457-10.933 11.059 59.442 59.442 10.934-10.933 15.457 15.457 0.754 0.755 15.457-12.945-12.316-12.316 20.862-20.861 14.2 14.2 3.394-2.89 12.065-10.053-11.311-11.31 20.861-20.861 13.195 13.195 31.041-25.763-9.676-9.676-90.483-90.357M715.695 124.064l-112.62-11.903-113.381 113.382 261.861 261.862 113.382-113.382-14.192-114.755-135.05-135.205m227.678 0.147l-15.468-15.467 10.937-10.937-59.527-59.527-10.937 10.936-15.468-15.467-0.78-0.782-15.469 12.968 12.344 12.344-20.78 20.779-14.218-14.218-3.437 2.812-12.03 10 11.249 11.25-20.78 20.935-13.124-13.124-31.092 25.78 9.687 9.687 90.462 90.462 9.687 9.687 25.78-30.935-13.124-13.125 20.779-20.78 11.249 11.25 10-12.03 2.812-3.438-14.218-14.217L919 128.116l12.342 12.343 12.968-15.468-0.937-0.78" p-id="2099" fill="#909090"></path></svg>